<?xml version="1.0" encoding="utf-8"?>
<!-- Generator: Adobe Illustrator 19.0.0, SVG Export Plug-In . SVG Version: 6.00 Build 0)  -->
<svg version="1.1" id="Layer_1" xmlns="http://www.w3.org/2000/svg" xmlns:xlink="http://www.w3.org/1999/xlink" x="0px" y="0px"
	 viewBox="0 0 1920 1920" style="enable-background:new 0 0 1920 1920;" xml:space="preserve">
<style type="text/css">
	.st0{fill:#172A53;}
	.st1{fill:#182A52;}
</style>
<g id="XMLID_467_">
	<path id="XMLID_478_" class="st0" d="M1336.5,169.8c1.3,33.6-5.5,67.4-22.7,96.3c-29.5,49.7-82.9,83.8-145,86.2l-1.3,0.1
		c-74.4,2.8-141.8,31.2-194,76.4c-17.5,15.1-33.3,32-47.1,50.7C885.8,534,862.5,602,864.3,674.9c2.3,95.5-67.8,180-163.1,186.9
		c-115.4,8.3-211.1-95.4-184.8-216.1c17-77.7,86.4-132.8,165.9-135.8l0.7,0c74.4-2.8,141.8-31.2,194.1-76.2
		c17.4-15.2,33.2-32.1,47-50.7c41.4-55.6,64.8-125.3,62-200c-3.7-97.1,71.8-178.7,168.7-182.7l0.7,0c62.1-2.4,117.9,27.6,151.1,74.9
		c19.3,27.5,28.7,60.7,29.9,94.3L1336.5,169.8z"/>
	<path id="XMLID_477_" class="st0" d="M1.2,772.2c1.3,33.5,10.7,66.8,30.1,94.2c33.3,47.2,89.1,77.2,151.2,74.7l1.3-0.1
		c74.4-2.9,143.7,20.1,199.3,61.2c18.6,13.7,35.7,29.4,50.9,46.9c44.6,51.3,73.1,117.2,77,190.1c5.1,95.4,81.5,174.2,177,173.7
		c115.7-0.6,203.1-111.5,167.5-229.8c-22.9-76.1-96.4-125.7-175.9-122.6l-0.7,0c-74.4,2.9-143.7-20.1-199.4-61
		c-18.5-13.8-35.6-29.5-50.8-46.9c-45.5-52.3-74.3-119.9-77.2-194.6C347.7,661,266.2,585.5,169.2,589l-0.7,0
		c-62.1,2.4-115.4,36.7-144.8,86.4C6.6,704.3-0.2,738.1,1.2,771.7L1.2,772.2z"/>
	<g id="XMLID_476_">
		<path id="XMLID_43_" class="st0" d="M1001.9,908.6c18.5,18.5,41.3,30.2,65.3,35c7.2,1.4,12.2,7.8,12.3,15.1c0,0.3,0,0.6,0,0.9
			c0,7.3-5.1,13.7-12.2,15.1c-23.8,4.8-46.6,16.5-65,35l-0.2,0.2c-18.5,18.6-30.1,41.3-34.8,65.2c-1.4,7.1-7.8,12.3-15.1,12.3
			c-0.1,0-0.2,0-0.3,0c-7.3,0-13.8-5.1-15.2-12.3c-4.1-21-13.6-41.3-28.3-58.5c-2.2-2.6-4.4-5.1-6.9-7.5c-2.4-2.4-4.9-4.7-7.5-6.9
			c-17.2-14.8-37.5-24.2-58.5-28.3c-7.2-1.4-12.3-7.9-12.3-15.2c0-0.1,0-0.3,0-0.4c0-7.3,5.2-13.6,12.3-15.1
			c23.9-4.7,46.6-16.2,65.2-34.7l0.4-0.4c18.5-18.5,30.1-41.1,34.9-64.9c1.5-7.1,7.8-12.2,15.1-12.2c0.3,0,0.5,0,0.8,0
			c7.3,0,13.7,5.1,15.1,12.3C971.7,867.3,983.4,890.1,1001.9,908.6z"/>
		<g id="XMLID_38_">
			<path id="XMLID_42_" class="st1" d="M1001.6,908.9c17.7,17.5,39.6,29.3,63.9,34.8c6.7,1.5,12.1,5.3,13.3,12.5
				c1.4,7.8-2.8,15.5-10.4,17.9c-5.5,1.7-11.2,2.6-16.7,4.5c-5.6,1.9-11.1,4.2-16.4,6.8c-21.9,11-40.6,28.3-53.1,49.4
				c-6.1,10.2-10.7,21.2-13.7,32.6c-1.7,6.3-2.1,13.1-8,17.1c-5.9,4-14.2,3.4-19.3-1.5c-5-4.8-5.2-12.8-7-19.1
				c-1.7-5.9-3.9-11.7-6.4-17.3c-5.2-11.4-12.1-22-20.4-31.5c-16.3-18.8-38.3-32.5-62.3-39.2c-6.8-1.9-14.7-2.1-19.1-8.5
				c-4-5.9-3.4-14.3,1.6-19.4c4.5-4.6,11.2-4.8,17.1-6.4c5.7-1.6,11.3-3.5,16.7-5.9c21.6-9.3,40.3-24.6,53.9-43.8
				c7.8-11,13.8-23.2,17.8-36.1c2-6.5,2.3-15.1,7.5-20.1c5.9-5.6,15.8-5.6,21.7,0c5.2,5,5.4,13.6,7.4,20.1c2,6.4,4.5,12.7,7.4,18.8
				C983.3,887.4,991.7,898.8,1001.6,908.9c0.3,0.3,0.9-0.2,0.5-0.5C991.9,898,983.3,886,977,872.8c-3.2-6.7-5.8-13.8-7.7-21
				c-1.3-4.9-1.7-10.5-4.8-14.7c-5.4-7.3-16.5-8.5-23.5-2.8c-4.2,3.4-5.1,7.8-6.3,12.8c-1.6,7-3.9,13.8-6.7,20.4
				c-11.1,26.2-31.2,48.4-56.1,62.1c-6.6,3.6-13.4,6.6-20.5,9c-6.1,2.1-12.8,2.7-18.8,5.1c-8.4,3.3-12.3,13.5-8.6,21.7
				c4.8,10.5,18.5,10.2,28,13.5c14.7,5,28.3,12.7,40.2,22.6c11.6,9.6,21.5,21.3,29,34.3c3.9,6.7,7.2,13.8,9.8,21.2
				c2.4,6.6,3.3,13.7,5.6,20.3c2.8,8.3,12.4,12.7,20.6,9.7c11-4,10.8-16.8,13.9-26.2c9.1-28,28.2-52.5,53.1-68.3
				c12-7.6,25.2-13.2,39-16.4c5-1.2,9.4-2.1,12.8-6.3c2.8-3.4,3.9-7.9,3.5-12.3c-0.4-4.5-2.7-8.7-6.3-11.3
				c-4.2-3.1-9.8-3.4-14.7-4.8c-13.8-3.8-26.9-9.8-38.6-17.9c-6.4-4.4-12.4-9.5-17.9-14.9C1001.8,908,1001.3,908.6,1001.6,908.9z"/>
		</g>
	</g>
	<path id="XMLID_475_" class="st0" d="M1920.9,1158.1c-1-33.6-10.1-66.9-29.2-94.5c-32.9-47.5-88.4-78-150.5-76.1l-1.3,0
		c-74.5,2.3-143.6-21.4-198.8-63c-18.5-13.9-35.4-29.7-50.5-47.3c-44.2-51.7-72.1-117.9-75.3-190.8
		c-4.2-95.5-79.9-174.9-175.5-175.3c-115.7-0.4-204.1,109.6-169.6,228.3c22.2,76.3,95.3,126.5,174.8,124.1l0.7,0
		c74.5-2.3,143.6,21.4,198.9,62.8c18.4,14,35.3,29.8,50.4,47.3c45.1,52.7,73.2,120.6,75.5,195.3c3,97.1,83.9,173.3,180.8,170.8
		l0.7,0c62.1-1.9,115.7-35.6,145.6-85.1c17.4-28.7,24.4-62.5,23.4-96.1L1920.9,1158.1z"/>
	<path id="XMLID_468_" class="st0" d="M764.4,1928.3c33.5-1.9,66.6-11.9,93.7-31.7c46.6-34.1,75.6-90.5,72-152.5l-0.1-1.3
		c-4.3-74.4,17.6-144.1,57.7-200.4c13.4-18.9,28.7-36.2,46-51.7c50.5-45.5,115.9-75.2,188.7-80.4c95.3-6.8,172.7-84.5,170.5-180.1
		c-2.7-115.6-115.1-201.1-232.7-163.4c-75.7,24.3-124,98.7-119.4,178l0,0.7c4.3,74.4-17.6,144.1-57.5,200.5
		c-13.5,18.8-28.8,36.1-46,51.6c-51.5,46.5-118.6,76.4-193.2,80.7c-97,5.6-171,88.5-165.9,185.3l0,0.7c3.5,62,38.7,114.7,88.9,143.3
		c29.2,16.6,63.2,22.8,96.7,20.8L764.4,1928.3z"/>
</g>
</svg>
