<?xml version="1.0" encoding="utf-8"?>
<!-- Generator: Adobe Illustrator 19.0.0, SVG Export Plug-In . SVG Version: 6.00 Build 0)  -->
<svg version="1.1" id="Layer_1" xmlns="http://www.w3.org/2000/svg" xmlns:xlink="http://www.w3.org/1999/xlink" x="0px" y="0px"
	 viewBox="0 0 1920 313.7" style="enable-background:new 0 0 1920 313.7;" xml:space="preserve">
<style type="text/css">
	.st0{fill:#172A53;}
	.st1{fill:#182A52;}
</style>
<g id="XMLID_469_">
	<g id="XMLID_490_">
		<path id="XMLID_524_" class="st0" d="M476.3,36L476.3,36c0,6.5-5.3,11.7-11.7,11.7h-41c-3.3,0-6,2.7-6,6v75
			c0,7.1-5.8,12.9-12.9,12.9h0c-7.1,0-12.9-5.8-12.9-12.9v-75c0-3.3-2.7-6-6-6h-41c-6.5,0-11.7-5.3-11.7-11.7v0
			c0-6.5,5.3-11.7,11.7-11.7h119.7C471.1,24.3,476.3,29.6,476.3,36z"/>
		<path id="XMLID_521_" class="st0" d="M605.6,94.7c-0.1,0-0.2,0.1-0.2,0.2c0.1,12.8,10.1,23.3,22.3,23.3h12.9
			c6.5,0,11.7,5.3,11.7,11.7v0c0,6.5-5.3,11.7-11.7,11.7h-12.9c-26.4,0-48-21-48.1-46.8c0-0.1-0.1-0.2-0.1-0.2c-3,0-52.9,0-56,0
			c-0.1,0-0.2,0.1-0.2,0.2v33.9c0,7.1-5.8,12.9-12.9,12.9h0c-7.1,0-12.9-5.8-12.9-12.9V59.5c0-19.5,16.3-35.2,36.4-35.2H616
			c20.1,0,36.4,15.8,36.4,35.2S636.1,94.7,616,94.7L605.6,94.7z M523.3,59.5c0,6.5,5.3,11.7,11.7,11.7h81c5.9,0,10.6-5.4,10.6-11.7
			c0-6.5-4.7-11.7-10.6-11.7h-82.2C528,47.8,523.3,53,523.3,59.5L523.3,59.5z"/>
		<path id="XMLID_518_" class="st0" d="M768.6,24.3c26.5,0,48.1,21,48.1,47v58.7c0,6.5-5.3,11.7-11.7,11.7h-2.3
			c-6.5,0-11.7-5.3-11.7-11.7v-11.7c0-6.5-5.3-11.7-11.7-11.7h-68.1c-6.5,0-11.7,5.3-11.7,11.7v11.7c0,6.5-5.3,11.7-11.7,11.7h-2.3
			c-6.5,0-11.7-5.3-11.7-11.7V71.2c0-26,21.5-47,48.1-47H768.6z M711.1,83h68.1c6.5,0,11.7-5.3,11.7-11.7v0
			c0-12.9-10.1-23.5-22.3-23.5h-47c-12.4,0-22.3,10.6-22.3,23.5v0C699.3,77.7,704.6,83,711.1,83z"/>
		<path id="XMLID_516_" class="st0" d="M956.4,141.7c-26.5,0-48.1-21.1-48.1-47V71.2c0-12.9-10.1-23.5-22.3-23.5h-11.7
			c-5.9,0-10.6,5.2-10.6,11.7v69.3c0,7.1-5.8,12.9-12.9,12.9l0,0c-7.1,0-12.9-5.8-12.9-12.9V59.5c0-19.5,16.3-35.2,36.4-35.2h11.7
			c26.5,0,48.1,21,48.1,47v23.5c0,12.9,10.1,23.5,22.3,23.5c5.9,0,10.6-5.4,10.6-11.7V37.2c0-7.1,5.8-12.9,12.9-12.9h0
			c7.1,0,12.9,5.8,12.9,12.9v69.3C992.8,125.9,976.5,141.7,956.4,141.7z"/>
		<path id="XMLID_513_" class="st0" d="M1120.7,24.3c26.7,0,48.1,21,48.1,47v23.5c0,25.8-21.5,47-48.1,47H1062
			c-26.5,0-48.1-21.1-48.1-47V71.2c0-26,21.6-47,48.1-47H1120.7z M1039.7,94.7c0,12.9,10.1,23.5,22.3,23.5h43.4
			c-5.7-6.2-9.4-14.4-9.4-23.5v0c0-6.5,5.3-11.7,11.7-11.7h2.3c6.5,0,11.7,5.3,11.7,11.7v0c0,6.4,4.9,11.7,10.6,11.7l0,0
			c5.2,0,9.8-3.8,10.4-9c0.1-0.9,0.1-1.8,0.1-2.8V71.2c0-12.9-9.9-23.5-22.3-23.5H1062c-12.2,0-22.3,10.6-22.3,23.5V94.7z"/>
		<path id="XMLID_511_" class="st0" d="M1238.1,141.7c-26.7,0-48.1-21.1-48.1-47V37.2c0-7.1,5.8-12.9,12.9-12.9h0
			c7.1,0,12.9,5.8,12.9,12.9v57.5c0,12.9,9.9,23.5,22.3,23.5h47c12.2,0,22.3-10.6,22.3-23.5V37.2c0-7.1,5.8-12.9,12.9-12.9l0,0
			c7.1,0,12.9,5.8,12.9,12.9v57.5c0,25.8-21.6,47-48.1,47H1238.1z"/>
		<path id="XMLID_509_" class="st0" d="M1354.2,128.8V37.2c0-7.1,5.8-12.9,12.9-12.9l0,0c7.1,0,12.9,5.8,12.9,12.9v91.6
			c0,7.1-5.8,12.9-12.9,12.9l0,0C1360,141.7,1354.2,135.9,1354.2,128.8z"/>
		<path id="XMLID_507_" class="st0" d="M1437.6,141.7c-20,0-36.4-15.8-36.4-35.2V37.2c0-7.1,5.8-12.9,12.9-12.9l0,0
			c7.1,0,12.9,5.8,12.9,12.9v69.3c0,6.4,4.9,11.7,10.6,11.7h101.5c2.9,0,5.3,2.4,5.3,5.3v0c0,10-8.1,18.2-18.2,18.2H1437.6z"/>
		<path id="XMLID_505_" class="st0" d="M1565.5,129.9V36c0-6.5,5.3-11.7,11.7-11.7h2.3c6.5,0,11.7,5.3,11.7,11.7v93.9
			c0,6.5-5.3,11.7-11.7,11.7h-2.3C1570.8,141.7,1565.5,136.4,1565.5,129.9z"/>
		<path id="XMLID_503_" class="st0" d="M1755.7,36L1755.7,36c0,6.5-5.3,11.7-11.7,11.7h-35.2c-6.5,0-11.7,5.3-11.7,11.7v70.4
			c0,6.5-5.3,11.7-11.7,11.7h-2.3c-6.5,0-11.7-5.3-11.7-11.7V59.5c0-6.5-5.3-11.7-11.7-11.7h-35.2c-6.5,0-11.7-5.3-11.7-11.7v0
			c0-6.5,5.3-11.7,11.7-11.7h119.7C1750.4,24.3,1755.7,29.6,1755.7,36z"/>
		<path id="XMLID_501_" class="st0" d="M1904.7,24.3h4.7c5.8,0,10.6,4.7,10.6,10.6v12.9c0,25.8-21.6,47-48.1,47l0,0
			c-5.8,0-10.6,4.7-10.6,10.6v25.8c0,5.8-4.7,10.6-10.6,10.6h-4.7c-5.8,0-10.6-4.7-10.6-10.6v-25.8c0-5.8-4.7-10.6-10.6-10.6l0,0
			c-26.5,0-48.1-21.1-48.1-47V34.9c0-5.8,4.7-10.6,10.6-10.6h4.7c5.8,0,10.6,4.7,10.6,10.6v12.9c0,12.9,10.1,23.5,22.3,23.5h47
			c12.2,0,22.3-10.6,22.3-23.5V34.9C1894.2,29,1898.9,24.3,1904.7,24.3z"/>
		<path id="XMLID_499_" class="st0" d="M410.6,300.7c-26.5,0-48.1-21.1-48.1-47v-23.5c0-26,21.6-47,48.1-47h83.3
			c6.5,0,11.7,5.3,11.7,11.7v0c0,6.5-5.3,11.7-11.7,11.7h-83.3c-12.2,0-22.3,10.6-22.3,23.5v23.5c0,12.9,10.1,23.5,22.3,23.5h83.3
			c6.5,0,11.7,5.3,11.7,11.7v0c0,6.5-5.3,11.7-11.7,11.7H410.6z"/>
		<path id="XMLID_496_" class="st0" d="M574.9,300.7c-26.5,0-48.1-21.1-48.1-47v-23.5c0-26,21.6-47,48.1-47h58.7
			c26.7,0,48.1,21,48.1,47v23.5c0,25.8-21.5,47-48.1,47H574.9z M574.9,206.8c-12.2,0-22.3,10.6-22.3,23.5v23.5
			c0,12.9,10.1,23.5,22.3,23.5h58.7c12.4,0,22.3-10.6,22.3-23.5v-23.5c0-12.9-9.9-23.5-22.3-23.5H574.9z"/>
		<path id="XMLID_493_" class="st0" d="M739.2,300.7c-20.1,0-36.4-15.8-36.4-35.2v-47c0-19.5,16.3-35.2,36.4-35.2h70.4
			c26.5,0,48.1,21,48.1,47v23.5c0,25.8-21.6,47-48.1,47H739.2z M739.2,206.8c-5.9,0-10.6,5.2-10.6,11.7v47c0,6.4,4.7,11.7,10.6,11.7
			h70.4c12.2,0,22.3-10.6,22.3-23.5v-23.5c0-12.9-10.1-23.5-22.3-23.5H739.2z"/>
		<path id="XMLID_491_" class="st0" d="M904.7,265.5c0,6.4,4.7,11.7,10.6,11.7h95.1c6.5,0,11.7,5.3,11.7,11.7v0
			c0,6.5-5.3,11.7-11.7,11.7h-95.1c-20.1,0-36.4-15.8-36.4-35.2v-47c0-19.5,16.3-35.2,36.4-35.2h95.1c6.5,0,11.7,5.3,11.7,11.7v0
			c0,6.5-5.3,11.7-11.7,11.7h-95.1c-5.9,0-10.6,5.2-10.6,11.7v11.7h93.9c6.5,0,11.7,5.3,11.7,11.7v0c0,6.5-5.3,11.7-11.7,11.7h-93.9
			V265.5z"/>
	</g>
	<g id="XMLID_470_">
		<path id="XMLID_489_" class="st0" d="M217.3,27.6c0.2,5.5-0.9,11-3.7,15.7c-4.8,8.1-13.5,13.6-23.6,14l-0.2,0
			c-12.1,0.5-23.1,5.1-31.6,12.4c-2.8,2.5-5.4,5.2-7.7,8.2c-6.6,8.9-10.4,19.9-10.1,31.8c0.4,15.5-11,29.3-26.5,30.4
			c-18.8,1.4-34.3-15.5-30.1-35.2c2.8-12.6,14.1-21.6,27-22.1l0.1,0c12.1-0.5,23.1-5.1,31.6-12.4c2.8-2.5,5.4-5.2,7.7-8.2
			c6.7-9,10.5-20.4,10.1-32.5C159.6,14,171.9,0.7,187.7,0l0.1,0c10.1-0.4,19.2,4.5,24.6,12.2C215.5,16.7,217,22.1,217.3,27.6
			L217.3,27.6z"/>
		<path id="XMLID_488_" class="st0" d="M0,125.6c0.2,5.5,1.7,10.9,4.9,15.3c5.4,7.7,14.5,12.6,24.6,12.2l0.2,0
			c12.1-0.5,23.4,3.3,32.4,10c3,2.2,5.8,4.8,8.3,7.6c7.3,8.3,11.9,19.1,12.5,30.9c0.8,15.5,13.3,28.3,28.8,28.3
			c18.8-0.1,33-18.1,27.2-37.4c-3.7-12.4-15.7-20.4-28.6-19.9l-0.1,0c-12.1,0.5-23.4-3.3-32.4-9.9c-3-2.2-5.8-4.8-8.3-7.6
			c-7.4-8.5-12.1-19.5-12.6-31.7c-0.6-15.8-13.9-28.1-29.7-27.5l-0.1,0c-10.1,0.4-18.8,6-23.6,14.1C0.9,114.6-0.2,120.1,0,125.6
			L0,125.6z"/>
		<g id="XMLID_473_">
			<path id="XMLID_30_" class="st0" d="M162.8,147.8c3,3,6.7,4.9,10.6,5.7c1.2,0.2,2,1.3,2,2.5c0,0.1,0,0.1,0,0.2
				c0,1.2-0.8,2.2-2,2.5c-3.9,0.8-7.6,2.7-10.6,5.7l0,0c-3,3-4.9,6.7-5.7,10.6c-0.2,1.2-1.3,2-2.4,2c0,0,0,0,0,0
				c-1.2,0-2.2-0.8-2.5-2c-0.7-3.4-2.2-6.7-4.6-9.5c-0.4-0.4-0.7-0.8-1.1-1.2c-0.4-0.4-0.8-0.8-1.2-1.1c-2.8-2.4-6.1-3.9-9.5-4.6
				c-1.2-0.2-2-1.3-2-2.5c0,0,0,0,0-0.1c0-1.2,0.8-2.2,2-2.4c3.9-0.8,7.6-2.6,10.6-5.6l0.1-0.1c3-3,4.9-6.7,5.7-10.6
				c0.2-1.2,1.3-2,2.5-2c0,0,0.1,0,0.1,0c1.2,0,2.2,0.8,2.5,2C157.9,141.1,159.8,144.8,162.8,147.8z"/>
			<g id="XMLID_25_">
				<path id="XMLID_29_" class="st1" d="M162.5,148.1c1.6,1.4,3.2,2.7,5.1,3.7c1.9,1,9.1,2.5,4.3,6.7c-1,0.9-3.6,1.3-4.9,2.1
					c-1.6,0.9-3.1,2.1-4.4,3.4c-1.1,1.1-2.1,2.4-3,3.8c-0.9,1.4-1.4,4.4-2.5,5.6c-4.1,4.6-5-0.5-5.6-2.2c-0.3-0.7-0.6-1.5-1-2.2
					c-1-1.9-2.3-3.6-3.8-5.1c-1.3-1.3-2.8-2.5-4.5-3.4c-0.7-0.4-1.4-0.8-2.1-1.1c-2.4-1-2.8-0.2-2.8-3.5c0-3.3,0.2-2.4,2.8-3.5
					c0.7-0.3,1.4-0.7,2.1-1.1c1.6-0.9,3.1-2,4.4-3.3c1.1-1.1,2.2-2.4,3-3.8c0.6-0.9,1.7-5,2.5-5.6c1.7,0,3.3,0,5,0
					c0.1,0.5,0.3,1,0.4,1.4c-0.3-0.4,0.9,2.1,0.9,2.2C159.5,144.5,160.9,146.3,162.5,148.1c0.3,0.4,0.9-0.2,0.5-0.5
					c-2.1-2.3-3.8-4.7-4.8-7.6c-0.4-1.1-0.5-3-1.3-4c-0.6-0.7-1.4-1.2-2.4-1.1c-1.6,0-2.1,1-2.8,2.2c-0.9,1.7-1.1,3.9-2,5.6
					c-1,1.8-2.2,3.5-3.7,4.9c-3.2,3.1-6.8,3.6-10.5,5.6c-1.2,0.6-2.2,1.3-2.2,2.8c0,1.6,0.9,2.2,2.2,2.9c0.8,0.4,2.2,0.5,3,0.8
					c2.9,1,5.5,2.7,7.7,4.8c3.3,3.3,3.8,6.8,5.7,10.7c0.6,1.2,1.3,2.2,2.8,2.2c1.6,0,2.1-1,2.8-2.2c0.9-1.7,1.1-3.9,2-5.6
					c0.9-1.8,2.2-3.5,3.6-4.9c1.4-1.5,3.1-2.7,4.9-3.7c1.8-0.9,3.9-1.1,5.6-2c1.2-0.7,2.1-1.2,2.2-2.8c0-1-0.4-1.8-1.1-2.5
					c-1-0.9-2.9-0.9-4-1.3c-2.9-1-5.3-2.7-7.6-4.8C162.7,147.2,162.2,147.7,162.5,148.1z"/>
			</g>
		</g>
		<path id="XMLID_472_" class="st0" d="M312.3,188.4c-0.2-5.5-1.6-10.9-4.8-15.4c-5.3-7.7-14.4-12.7-24.5-12.4l-0.2,0
			c-12.1,0.4-23.4-3.5-32.3-10.2c-3-2.3-5.8-4.8-8.2-7.7c-7.2-8.4-11.7-19.2-12.3-31c-0.7-15.5-13-28.5-28.5-28.5
			c-18.8-0.1-33.2,17.8-27.6,37.1c3.6,12.4,15.5,20.6,28.4,20.2l0.1,0c12.1-0.4,23.4,3.5,32.4,10.2c3,2.3,5.7,4.8,8.2,7.7
			c7.3,8.6,11.9,19.6,12.3,31.8c0.5,15.8,13.6,28.2,29.4,27.8l0.1,0c10.1-0.3,18.8-5.8,23.7-13.8
			C311.3,199.4,312.5,193.9,312.3,188.4L312.3,188.4z"/>
		<path id="XMLID_471_" class="st0" d="M124.2,313.7c5.5-0.3,10.8-1.9,15.2-5.2c7.6-5.6,12.3-14.7,11.7-24.8l0-0.2
			c-0.7-12.1,2.9-23.4,9.4-32.6c2.2-3.1,4.7-5.9,7.5-8.4c8.2-7.4,18.9-12.2,30.7-13.1c15.5-1.1,28.1-13.8,27.7-29.3
			c-0.4-18.8-18.7-32.7-37.9-26.6c-12.3,3.9-20.2,16-19.4,29l0,0.1c0.7,12.1-2.9,23.4-9.3,32.6c-2.2,3.1-4.7,5.9-7.5,8.4
			c-8.4,7.6-19.3,12.4-31.4,13.1c-15.8,0.9-27.8,14.4-27,30.1l0,0.1c0.6,10.1,6.3,18.7,14.5,23.3C113.1,313,118.6,314,124.2,313.7
			L124.2,313.7z"/>
	</g>
</g>
</svg>
